<svg width="25" height="25" viewBox="0 0 25 25" fill="none" xmlns="http://www.w3.org/2000/svg">
<path d="M8.5 6.25C8.09 6.25 7.75 5.91 7.75 5.5V2.5C7.75 2.09 8.09 1.75 8.5 1.75C8.91 1.75 9.25 2.09 9.25 2.5V5.5C9.25 5.91 8.91 6.25 8.5 6.25Z" fill="#C0BCC9"/>
<path d="M16.5 6.25C16.09 6.25 15.75 5.91 15.75 5.5V2.5C15.75 2.09 16.09 1.75 16.5 1.75C16.91 1.75 17.25 2.09 17.25 2.5V5.5C17.25 5.91 16.91 6.25 16.5 6.25Z" fill="#C0BCC9"/>
<path d="M9 15C8.87 15 8.74 14.97 8.62 14.92C8.49 14.87 8.39 14.8 8.29 14.71C8.11 14.52 8 14.27 8 14C8 13.87 8.03 13.74 8.08 13.62C8.13 13.5 8.2 13.39 8.29 13.29C8.39 13.2 8.49 13.13 8.62 13.08C8.98 12.93 9.43 13.01 9.71 13.29C9.89 13.48 10 13.74 10 14C10 14.06 9.99 14.13 9.98 14.2C9.97 14.26 9.95 14.32 9.92 14.38C9.9 14.44 9.87 14.5 9.83 14.56C9.8 14.61 9.75 14.66 9.71 14.71C9.52 14.89 9.26 15 9 15Z" fill="#C0BCC9"/>
<path d="M12.5 15C12.37 15 12.24 14.97 12.12 14.92C11.99 14.87 11.89 14.8 11.79 14.71C11.61 14.52 11.5 14.27 11.5 14C11.5 13.87 11.53 13.74 11.58 13.62C11.63 13.5 11.7 13.39 11.79 13.29C11.89 13.2 11.99 13.13 12.12 13.08C12.48 12.92 12.93 13.01 13.21 13.29C13.39 13.48 13.5 13.74 13.5 14C13.5 14.06 13.49 14.13 13.48 14.2C13.47 14.26 13.45 14.32 13.42 14.38C13.4 14.44 13.37 14.5 13.33 14.56C13.3 14.61 13.25 14.66 13.21 14.71C13.02 14.89 12.76 15 12.5 15Z" fill="#C0BCC9"/>
<path d="M16 15C15.87 15 15.74 14.97 15.62 14.92C15.49 14.87 15.39 14.8 15.29 14.71C15.25 14.66 15.21 14.61 15.17 14.56C15.13 14.5 15.1 14.44 15.08 14.38C15.05 14.32 15.03 14.26 15.02 14.2C15.01 14.13 15 14.06 15 14C15 13.74 15.11 13.48 15.29 13.29C15.39 13.2 15.49 13.13 15.62 13.08C15.99 12.92 16.43 13.01 16.71 13.29C16.89 13.48 17 13.74 17 14C17 14.06 16.99 14.13 16.98 14.2C16.97 14.26 16.95 14.32 16.92 14.38C16.9 14.44 16.87 14.5 16.83 14.56C16.8 14.61 16.75 14.66 16.71 14.71C16.52 14.89 16.26 15 16 15Z" fill="#C0BCC9"/>
<path d="M9 18.5C8.87 18.5 8.74 18.47 8.62 18.42C8.5 18.37 8.39 18.3 8.29 18.21C8.11 18.02 8 17.76 8 17.5C8 17.37 8.03 17.24 8.08 17.12C8.13 16.99 8.2 16.88 8.29 16.79C8.66 16.42 9.34 16.42 9.71 16.79C9.89 16.98 10 17.24 10 17.5C10 17.76 9.89 18.02 9.71 18.21C9.52 18.39 9.26 18.5 9 18.5Z" fill="#C0BCC9"/>
<path d="M12.5 18.5C12.24 18.5 11.98 18.39 11.79 18.21C11.61 18.02 11.5 17.76 11.5 17.5C11.5 17.37 11.53 17.24 11.58 17.12C11.63 16.99 11.7 16.88 11.79 16.79C12.16 16.42 12.84 16.42 13.21 16.79C13.3 16.88 13.37 16.99 13.42 17.12C13.47 17.24 13.5 17.37 13.5 17.5C13.5 17.76 13.39 18.02 13.21 18.21C13.02 18.39 12.76 18.5 12.5 18.5Z" fill="#C0BCC9"/>
<path d="M16 18.5C15.74 18.5 15.48 18.39 15.29 18.21C15.2 18.12 15.13 18.01 15.08 17.88C15.03 17.76 15 17.63 15 17.5C15 17.37 15.03 17.24 15.08 17.12C15.13 16.99 15.2 16.88 15.29 16.79C15.52 16.56 15.87 16.45 16.19 16.52C16.26 16.53 16.32 16.55 16.38 16.58C16.44 16.6 16.5 16.63 16.56 16.67C16.61 16.7 16.66 16.75 16.71 16.79C16.89 16.98 17 17.24 17 17.5C17 17.76 16.89 18.02 16.71 18.21C16.52 18.39 16.26 18.5 16 18.5Z" fill="#C0BCC9"/>
<path d="M21 10.34H4C3.59 10.34 3.25 9.99997 3.25 9.58997C3.25 9.17997 3.59 8.83997 4 8.83997H21C21.41 8.83997 21.75 9.17997 21.75 9.58997C21.75 9.99997 21.41 10.34 21 10.34Z" fill="#C0BCC9"/>
<path d="M16.5 23.25H8.5C4.85 23.25 2.75 21.15 2.75 17.5V9C2.75 5.35 4.85 3.25 8.5 3.25H16.5C20.15 3.25 22.25 5.35 22.25 9V17.5C22.25 21.15 20.15 23.25 16.5 23.25ZM8.5 4.75C5.64 4.75 4.25 6.14 4.25 9V17.5C4.25 20.36 5.64 21.75 8.5 21.75H16.5C19.36 21.75 20.75 20.36 20.75 17.5V9C20.75 6.14 19.36 4.75 16.5 4.75H8.5Z" fill="#C0BCC9"/>
</svg>
