<svg width="25" height="25" viewBox="0 0 25 25" fill="none" xmlns="http://www.w3.org/2000/svg">
<path d="M11.458 2.08331H9.37468C4.16634 2.08331 2.08301 4.16665 2.08301 9.37498V15.625C2.08301 20.8333 4.16634 22.9166 9.37468 22.9166H15.6247C20.833 22.9166 22.9163 20.8333 22.9163 15.625V13.5416" stroke="#C0BCC9" stroke-width="1.5" stroke-linecap="round" stroke-linejoin="round"/>
<path d="M16.7085 3.14585L8.50012 11.3542C8.18762 11.6667 7.87512 12.2813 7.81262 12.7292L7.3647 15.8646C7.19803 17 8.00012 17.7917 9.13554 17.6354L12.271 17.1875C12.7085 17.125 13.323 16.8125 13.646 16.5L21.8543 8.29169C23.271 6.87502 23.9376 5.22919 21.8543 3.14585C19.771 1.06252 18.1251 1.72919 16.7085 3.14585Z" stroke="#C0BCC9" stroke-width="1.5" stroke-miterlimit="10" stroke-linecap="round" stroke-linejoin="round"/>
<path d="M15.5312 4.32294C16.2292 6.81252 18.1771 8.76044 20.6771 9.46877" stroke="#C0BCC9" stroke-width="1.5" stroke-miterlimit="10" stroke-linecap="round" stroke-linejoin="round"/>
</svg>
