<svg width="25" height="25" viewBox="0 0 25 25" fill="none" xmlns="http://www.w3.org/2000/svg">
<path d="M12.4999 14.67C10.3699 14.67 8.62988 12.94 8.62988 10.8C8.62988 8.66 10.3699 6.94 12.4999 6.94C14.6299 6.94 16.3699 8.67 16.3699 10.81C16.3699 12.95 14.6299 14.67 12.4999 14.67ZM12.4999 8.44C11.1999 8.44 10.1299 9.5 10.1299 10.81C10.1299 12.12 11.1899 13.18 12.4999 13.18C13.8099 13.18 14.8699 12.12 14.8699 10.81C14.8699 9.5 13.7999 8.44 12.4999 8.44Z" fill="#C0BCC9"/>
<path d="M12.4997 23.26C11.0197 23.26 9.52969 22.7 8.36969 21.59C5.41969 18.75 2.15969 14.22 3.38969 8.83C4.49969 3.94 8.76969 1.75 12.4997 1.75C12.4997 1.75 12.4997 1.75 12.5097 1.75C16.2397 1.75 20.5097 3.94 21.6197 8.84C22.8397 14.23 19.5797 18.75 16.6297 21.59C15.4697 22.7 13.9797 23.26 12.4997 23.26ZM12.4997 3.25C9.58969 3.25 5.84969 4.8 4.85969 9.16C3.77969 13.87 6.73969 17.93 9.41969 20.5C11.1497 22.17 13.8597 22.17 15.5897 20.5C18.2597 17.93 21.2197 13.87 20.1597 9.16C19.1597 4.8 15.4097 3.25 12.4997 3.25Z" fill="#C0BCC9"/>
</svg>
